<mxfile host="app.diagrams.net" modified="2023-04-22T12:53:30.165Z" agent="Mozilla/5.0 (Windows NT 10.0; Win64; x64) AppleWebKit/537.36 (KHTML, like Gecko) Chrome/112.0.0.0 Safari/537.36" etag="FvhRzZ9j2zObk25pmT6u" version="21.2.1" type="github">
  <diagram name="Page-1" id="DxJVUn00btfM4-Qd-DbG">
    <mxGraphModel dx="794" dy="477" grid="1" gridSize="10" guides="1" tooltips="1" connect="1" arrows="1" fold="1" page="1" pageScale="1" pageWidth="850" pageHeight="1100" math="0" shadow="0">
      <root>
        <mxCell id="0" />
        <mxCell id="1" parent="0" />
        <mxCell id="LaabG1cJ9EK8IkI-jFyv-1" value="" style="group" vertex="1" connectable="0" parent="1">
          <mxGeometry x="230" y="110" width="270" height="470" as="geometry" />
        </mxCell>
        <mxCell id="LaabG1cJ9EK8IkI-jFyv-2" value="" style="rounded=0;whiteSpace=wrap;html=1;sketch=1;curveFitting=1;jiggle=2;fillColor=default;strokeColor=#575757;" vertex="1" parent="LaabG1cJ9EK8IkI-jFyv-1">
          <mxGeometry width="260" height="470" as="geometry" />
        </mxCell>
        <mxCell id="LaabG1cJ9EK8IkI-jFyv-3" value="" style="rounded=0;whiteSpace=wrap;html=1;fillColor=#D9D9D9;strokeColor=#575757;sketch=1;curveFitting=1;jiggle=2;" vertex="1" parent="LaabG1cJ9EK8IkI-jFyv-1">
          <mxGeometry width="260" height="470" as="geometry" />
        </mxCell>
        <mxCell id="LaabG1cJ9EK8IkI-jFyv-4" value="&amp;nbsp; &amp;nbsp; &amp;nbsp; &amp;nbsp; &amp;nbsp; &amp;nbsp; Subject Materials" style="text;strokeColor=#575757;align=left;fillColor=#878787;html=1;verticalAlign=middle;whiteSpace=wrap;rounded=0;fontStyle=1;fontSize=14;shadow=0;sketch=1;curveFitting=1;jiggle=2;fontFamily=Helvetica;fontColor=#242424;" vertex="1" parent="LaabG1cJ9EK8IkI-jFyv-1">
          <mxGeometry width="260" height="40" as="geometry" />
        </mxCell>
        <mxCell id="LaabG1cJ9EK8IkI-jFyv-5" value="" style="edgeStyle=none;orthogonalLoop=1;jettySize=auto;html=1;rounded=1;strokeWidth=2;endArrow=open;endFill=0;strokeColor=#242424;" edge="1" parent="LaabG1cJ9EK8IkI-jFyv-1">
          <mxGeometry width="80" relative="1" as="geometry">
            <mxPoint x="35" y="21" as="sourcePoint" />
            <mxPoint x="20" y="21" as="targetPoint" />
            <Array as="points" />
          </mxGeometry>
        </mxCell>
        <mxCell id="LaabG1cJ9EK8IkI-jFyv-22" value="" style="group" vertex="1" connectable="0" parent="LaabG1cJ9EK8IkI-jFyv-1">
          <mxGeometry x="13.5" y="60" width="230" height="60" as="geometry" />
        </mxCell>
        <mxCell id="LaabG1cJ9EK8IkI-jFyv-23" value="" style="rounded=0;whiteSpace=wrap;html=1;sketch=1;curveFitting=1;jiggle=2;strokeColor=#575757;fillColor=#C4C4C4;" vertex="1" parent="LaabG1cJ9EK8IkI-jFyv-22">
          <mxGeometry x="67" width="164" height="60" as="geometry" />
        </mxCell>
        <mxCell id="LaabG1cJ9EK8IkI-jFyv-24" value="" style="rounded=0;whiteSpace=wrap;html=1;sketch=1;curveFitting=1;jiggle=2;strokeColor=#575757;fillColor=#C4C4C4;" vertex="1" parent="LaabG1cJ9EK8IkI-jFyv-22">
          <mxGeometry width="66.5" height="60" as="geometry" />
        </mxCell>
        <mxCell id="LaabG1cJ9EK8IkI-jFyv-25" value="" style="edgeStyle=none;orthogonalLoop=1;jettySize=auto;html=1;rounded=0;endArrow=none;endFill=0;strokeColor=#575757;exitX=0;exitY=0;exitDx=0;exitDy=0;entryX=1;entryY=1;entryDx=0;entryDy=0;" edge="1" parent="LaabG1cJ9EK8IkI-jFyv-22" source="LaabG1cJ9EK8IkI-jFyv-24" target="LaabG1cJ9EK8IkI-jFyv-24">
          <mxGeometry width="80" relative="1" as="geometry">
            <mxPoint x="86.5" y="40" as="sourcePoint" />
            <mxPoint x="166.5" y="40" as="targetPoint" />
            <Array as="points" />
          </mxGeometry>
        </mxCell>
        <mxCell id="LaabG1cJ9EK8IkI-jFyv-26" value="" style="edgeStyle=none;orthogonalLoop=1;jettySize=auto;html=1;rounded=0;endArrow=none;endFill=0;strokeColor=#575757;exitX=0;exitY=1;exitDx=0;exitDy=0;entryX=1;entryY=0;entryDx=0;entryDy=0;" edge="1" parent="LaabG1cJ9EK8IkI-jFyv-22" source="LaabG1cJ9EK8IkI-jFyv-24" target="LaabG1cJ9EK8IkI-jFyv-24">
          <mxGeometry width="80" relative="1" as="geometry">
            <mxPoint x="10.5" y="10" as="sourcePoint" />
            <mxPoint x="76.5" y="70" as="targetPoint" />
            <Array as="points" />
          </mxGeometry>
        </mxCell>
        <mxCell id="LaabG1cJ9EK8IkI-jFyv-27" value="Judul Materi" style="text;strokeColor=none;align=left;fillColor=none;html=1;verticalAlign=middle;whiteSpace=wrap;rounded=0;fontStyle=1;fontSize=12;shadow=0;" vertex="1" parent="LaabG1cJ9EK8IkI-jFyv-22">
          <mxGeometry x="72" y="4" width="90" height="18" as="geometry" />
        </mxCell>
        <mxCell id="LaabG1cJ9EK8IkI-jFyv-28" value="Deskripsi materi... Lorem ipsum dolor sit amet" style="text;strokeColor=none;align=left;fillColor=none;html=1;verticalAlign=bottom;whiteSpace=wrap;rounded=0;fontStyle=0;fontSize=11;shadow=0;" vertex="1" parent="LaabG1cJ9EK8IkI-jFyv-22">
          <mxGeometry x="72" y="22" width="148" height="31" as="geometry" />
        </mxCell>
        <mxCell id="LaabG1cJ9EK8IkI-jFyv-29" value="" style="group" vertex="1" connectable="0" parent="LaabG1cJ9EK8IkI-jFyv-1">
          <mxGeometry x="13.5" y="140" width="230" height="60" as="geometry" />
        </mxCell>
        <mxCell id="LaabG1cJ9EK8IkI-jFyv-30" value="" style="rounded=0;whiteSpace=wrap;html=1;sketch=1;curveFitting=1;jiggle=2;strokeColor=#575757;fillColor=#C4C4C4;" vertex="1" parent="LaabG1cJ9EK8IkI-jFyv-29">
          <mxGeometry x="67" width="164" height="60" as="geometry" />
        </mxCell>
        <mxCell id="LaabG1cJ9EK8IkI-jFyv-31" value="" style="rounded=0;whiteSpace=wrap;html=1;sketch=1;curveFitting=1;jiggle=2;strokeColor=#575757;fillColor=#C4C4C4;" vertex="1" parent="LaabG1cJ9EK8IkI-jFyv-29">
          <mxGeometry width="66.5" height="60" as="geometry" />
        </mxCell>
        <mxCell id="LaabG1cJ9EK8IkI-jFyv-32" value="" style="edgeStyle=none;orthogonalLoop=1;jettySize=auto;html=1;rounded=0;endArrow=none;endFill=0;strokeColor=#575757;exitX=0;exitY=0;exitDx=0;exitDy=0;entryX=1;entryY=1;entryDx=0;entryDy=0;" edge="1" parent="LaabG1cJ9EK8IkI-jFyv-29" source="LaabG1cJ9EK8IkI-jFyv-31" target="LaabG1cJ9EK8IkI-jFyv-31">
          <mxGeometry width="80" relative="1" as="geometry">
            <mxPoint x="86.5" y="40" as="sourcePoint" />
            <mxPoint x="166.5" y="40" as="targetPoint" />
            <Array as="points" />
          </mxGeometry>
        </mxCell>
        <mxCell id="LaabG1cJ9EK8IkI-jFyv-33" value="" style="edgeStyle=none;orthogonalLoop=1;jettySize=auto;html=1;rounded=0;endArrow=none;endFill=0;strokeColor=#575757;exitX=0;exitY=1;exitDx=0;exitDy=0;entryX=1;entryY=0;entryDx=0;entryDy=0;" edge="1" parent="LaabG1cJ9EK8IkI-jFyv-29" source="LaabG1cJ9EK8IkI-jFyv-31" target="LaabG1cJ9EK8IkI-jFyv-31">
          <mxGeometry width="80" relative="1" as="geometry">
            <mxPoint x="10.5" y="10" as="sourcePoint" />
            <mxPoint x="76.5" y="70" as="targetPoint" />
            <Array as="points" />
          </mxGeometry>
        </mxCell>
        <mxCell id="LaabG1cJ9EK8IkI-jFyv-34" value="Judul Materi" style="text;strokeColor=none;align=left;fillColor=none;html=1;verticalAlign=middle;whiteSpace=wrap;rounded=0;fontStyle=1;fontSize=12;shadow=0;" vertex="1" parent="LaabG1cJ9EK8IkI-jFyv-29">
          <mxGeometry x="72" y="4" width="90" height="18" as="geometry" />
        </mxCell>
        <mxCell id="LaabG1cJ9EK8IkI-jFyv-35" value="Deskripsi materi... Lorem ipsum dolor sit amet" style="text;strokeColor=none;align=left;fillColor=none;html=1;verticalAlign=bottom;whiteSpace=wrap;rounded=0;fontStyle=0;fontSize=11;shadow=0;" vertex="1" parent="LaabG1cJ9EK8IkI-jFyv-29">
          <mxGeometry x="72" y="22" width="148" height="31" as="geometry" />
        </mxCell>
        <mxCell id="LaabG1cJ9EK8IkI-jFyv-36" value="" style="group" vertex="1" connectable="0" parent="LaabG1cJ9EK8IkI-jFyv-1">
          <mxGeometry x="13.5" y="220" width="230" height="60" as="geometry" />
        </mxCell>
        <mxCell id="LaabG1cJ9EK8IkI-jFyv-37" value="" style="rounded=0;whiteSpace=wrap;html=1;sketch=1;curveFitting=1;jiggle=2;strokeColor=#575757;fillColor=#C4C4C4;" vertex="1" parent="LaabG1cJ9EK8IkI-jFyv-36">
          <mxGeometry x="67" width="164" height="60" as="geometry" />
        </mxCell>
        <mxCell id="LaabG1cJ9EK8IkI-jFyv-38" value="" style="rounded=0;whiteSpace=wrap;html=1;sketch=1;curveFitting=1;jiggle=2;strokeColor=#575757;fillColor=#C4C4C4;" vertex="1" parent="LaabG1cJ9EK8IkI-jFyv-36">
          <mxGeometry width="66.5" height="60" as="geometry" />
        </mxCell>
        <mxCell id="LaabG1cJ9EK8IkI-jFyv-39" value="" style="edgeStyle=none;orthogonalLoop=1;jettySize=auto;html=1;rounded=0;endArrow=none;endFill=0;strokeColor=#575757;exitX=0;exitY=0;exitDx=0;exitDy=0;entryX=1;entryY=1;entryDx=0;entryDy=0;" edge="1" parent="LaabG1cJ9EK8IkI-jFyv-36" source="LaabG1cJ9EK8IkI-jFyv-38" target="LaabG1cJ9EK8IkI-jFyv-38">
          <mxGeometry width="80" relative="1" as="geometry">
            <mxPoint x="86.5" y="40" as="sourcePoint" />
            <mxPoint x="166.5" y="40" as="targetPoint" />
            <Array as="points" />
          </mxGeometry>
        </mxCell>
        <mxCell id="LaabG1cJ9EK8IkI-jFyv-40" value="" style="edgeStyle=none;orthogonalLoop=1;jettySize=auto;html=1;rounded=0;endArrow=none;endFill=0;strokeColor=#575757;exitX=0;exitY=1;exitDx=0;exitDy=0;entryX=1;entryY=0;entryDx=0;entryDy=0;" edge="1" parent="LaabG1cJ9EK8IkI-jFyv-36" source="LaabG1cJ9EK8IkI-jFyv-38" target="LaabG1cJ9EK8IkI-jFyv-38">
          <mxGeometry width="80" relative="1" as="geometry">
            <mxPoint x="10.5" y="10" as="sourcePoint" />
            <mxPoint x="76.5" y="70" as="targetPoint" />
            <Array as="points" />
          </mxGeometry>
        </mxCell>
        <mxCell id="LaabG1cJ9EK8IkI-jFyv-41" value="Judul Materi" style="text;strokeColor=none;align=left;fillColor=none;html=1;verticalAlign=middle;whiteSpace=wrap;rounded=0;fontStyle=1;fontSize=12;shadow=0;" vertex="1" parent="LaabG1cJ9EK8IkI-jFyv-36">
          <mxGeometry x="72" y="4" width="90" height="18" as="geometry" />
        </mxCell>
        <mxCell id="LaabG1cJ9EK8IkI-jFyv-42" value="Deskripsi materi... Lorem ipsum dolor sit amet" style="text;strokeColor=none;align=left;fillColor=none;html=1;verticalAlign=bottom;whiteSpace=wrap;rounded=0;fontStyle=0;fontSize=11;shadow=0;" vertex="1" parent="LaabG1cJ9EK8IkI-jFyv-36">
          <mxGeometry x="72" y="22" width="148" height="31" as="geometry" />
        </mxCell>
        <mxCell id="LaabG1cJ9EK8IkI-jFyv-43" value="Material Image" style="text;strokeColor=#575757;align=center;fillColor=default;html=1;verticalAlign=middle;whiteSpace=wrap;rounded=1;dashed=1;sketch=1;curveFitting=1;jiggle=2;" vertex="1" parent="1">
          <mxGeometry x="140" y="180" width="60" height="40" as="geometry" />
        </mxCell>
        <mxCell id="LaabG1cJ9EK8IkI-jFyv-44" style="rounded=0;orthogonalLoop=1;jettySize=auto;html=1;exitX=0;exitY=0.5;exitDx=0;exitDy=0;entryX=1;entryY=0.5;entryDx=0;entryDy=0;strokeColor=#575757;endArrow=open;endFill=0;dashed=1;sketch=1;curveFitting=1;jiggle=2;" edge="1" parent="1" source="LaabG1cJ9EK8IkI-jFyv-24" target="LaabG1cJ9EK8IkI-jFyv-43">
          <mxGeometry relative="1" as="geometry" />
        </mxCell>
      </root>
    </mxGraphModel>
  </diagram>
</mxfile>
